<svg xmlns="http://www.w3.org/2000/svg" xmlns:xlink="http://www.w3.org/1999/xlink" width="260" zoomAndPan="magnify" viewBox="0 0 194.87999 195.000001" height="260" preserveAspectRatio="xMidYMid meet" version="1.0"><defs><g/><clipPath id="2f98567863"><path d="M 0.4375 0 L 194.324219 0 L 194.324219 194.003906 L 0.4375 194.003906 Z M 0.4375 0 " clip-rule="nonzero"/></clipPath></defs><g clip-path="url(#2f98567863)"><path fill="#ffffff" d="M 0.4375 0 L 194.441406 0 L 194.441406 194.003906 L 0.4375 194.003906 Z M 0.4375 0 " fill-opacity="1" fill-rule="nonzero"/><path fill="#635bff" d="M 0.4375 0 L 194.441406 0 L 194.441406 194.003906 L 0.4375 194.003906 Z M 0.4375 0 " fill-opacity="1" fill-rule="nonzero"/></g><g fill="#ffffff" fill-opacity="1"><g transform="translate(43.270896, 140.79602)"><g><path d="M 51.125 -99.90625 C 58.695312 -99.90625 65.976562 -97.910156 72.96875 -93.921875 C 79.957031 -89.941406 85.703125 -84.128906 90.203125 -76.484375 C 94.710938 -68.847656 96.96875 -59.546875 96.96875 -48.578125 C 96.96875 -37.484375 94.710938 -28.144531 90.203125 -20.5625 C 85.703125 -12.988281 79.988281 -7.304688 73.0625 -3.515625 C 66.144531 0.265625 59.03125 2.15625 51.71875 2.15625 C 44.269531 2.15625 37.019531 0.164062 29.96875 -3.8125 C 22.914062 -7.800781 17.132812 -13.613281 12.625 -21.25 C 8.125 -28.894531 5.875 -38.203125 5.875 -49.171875 C 5.875 -60.398438 8.125 -69.769531 12.625 -77.28125 C 17.132812 -84.789062 22.847656 -90.4375 29.765625 -94.21875 C 36.691406 -98.007812 43.8125 -99.90625 51.125 -99.90625 Z M 54.265625 -4.109375 C 60.265625 -4.109375 64.960938 -7.375 68.359375 -13.90625 C 71.753906 -20.4375 73.453125 -30.164062 73.453125 -43.09375 C 73.453125 -53.019531 72.441406 -61.769531 70.421875 -69.34375 C 68.398438 -76.914062 65.523438 -82.859375 61.796875 -87.171875 C 58.078125 -91.484375 53.671875 -93.640625 48.578125 -93.640625 C 42.566406 -93.640625 37.863281 -90.375 34.46875 -83.84375 C 31.082031 -77.3125 29.390625 -67.644531 29.390625 -54.84375 C 29.390625 -45.050781 30.398438 -36.332031 32.421875 -28.6875 C 34.441406 -21.050781 37.34375 -15.046875 41.125 -10.671875 C 44.914062 -6.296875 49.296875 -4.109375 54.265625 -4.109375 Z M 54.265625 -4.109375 "/></g></g></g></svg>